<svg xmlns="http://www.w3.org/2000/svg" width="160" height="160" viewBox="0 0 160 160">
    <g fill="none" fill-rule="evenodd" stroke-linecap="round" stroke-linejoin="round" stroke-width="4">
        <path stroke="#69D19D" d="M86.54 46.818v-.959h3.835v.959M86.54 52.572v.959h3.835v-.96M107.414 42.224v-.959h3.836v.96M107.414 47.978v.96h3.836v-.96M127.29 37.755v-.959h3.835v.96M127.29 43.51v.958h3.835v-.959M68.791 46.651v-.959h-3.835v.96M68.791 52.405v.959h-3.835v-.96M47.916 42.058v-.96h-3.835v.96M47.916 47.812v.959h-3.835v-.96M28.041 37.589v-.959h-3.835v.959M28.041 43.343v.959h-3.835v-.96"/>
        <path stroke="#ED98BF" d="M38.504 74.027c-1.246 2.492-3.958 4.867-7.197 4.867h-4.971M121.246 74.027c1.246 2.492 4.436 4.867 7.674 4.867h4.494M57.973 81.276c-1.057 2.416-1.628 2.485-4.867 2.485h-7.301c-4.112 0-7.301-4.07-7.301-9.734v-2.434M79.875 83.762c-1.978 4.106-4.061 4.867-7.301 4.867h-7.301c-4.112 0-7.3-3.24-7.3-7.352v-2.382M101.777 81.328c1.057 2.567 2.544 2.434 5.788 2.434h7.25c4.111 0 6.431-4.411 6.431-9.735M79.875 78.894v4.867c1.369 3.955 4.056 4.867 7.301 4.867h7.301c4.112 0 7.3-3.188 7.3-7.3v-2.434M121.246 74.027v-2.434"/>
        <path stroke="#484848" d="M157.75 54.558S129.355 30.22 109.078 30.22c-16.524 0-14.906 7.45-29.203 7.301-14.602-.152-12.609-7.3-29.203-7.3C30.395 30.22 2 54.557 2 54.557S23.294 130 79.875 130c55.364 0 77.875-75.44 77.875-75.44z"/>
        <path stroke="#484848" d="M14.168 59.426s28.893 4.867 65.707 4.867c35.977 0 65.707-4.867 65.707-4.867"/>
        <path stroke="#484848" d="M145.582 59.426s-13.689 41.37-65.707 41.37c-52.626 0-65.707-41.37-65.707-41.37M123.68 45.602c-8.923-8.518-17.035-4.867-17.035-4.867"/>
    </g>
</svg>
