<?xml version="1.0" encoding="UTF-8"?><!DOCTYPE svg PUBLIC "-//W3C//DTD SVG 1.1//EN" "http://www.w3.org/Graphics/SVG/1.1/DTD/svg11.dtd"><svg xmlns="http://www.w3.org/2000/svg"><defs>
        <style>
            .cls-1{fill:#c0d5b3;fill-rule:evenodd}
        </style>
    
        <style>
            .cls-1{fill:#c0d5b3;fill-rule:evenodd}
        </style>
    
        <style>
            .cls-1{fill:#c0d5b3;fill-rule:evenodd}
        </style>
    
        <style>
            .cls-1{fill:#c0d5b3;fill-rule:evenodd}
        </style>
    </defs><symbol id="icon-checkbox-active" viewBox="0 0 459 459">
    <path d="M124.95 181.05l-35.7 35.7L204 331.5l255-255-35.7-35.7L204 260.1l-79.05-79.05zM408 408H51V51h255V0H51C22.95 0 0 22.95 0 51v357c0 28.05 22.95 51 51 51h357c28.05 0 51-22.95 51-51V204h-51v204z"/>
</symbol><symbol id="icon-checkbox" viewBox="0 0 401.998 401.998">
    <path d="M377.87 24.126C361.786 8.042 342.417 0 319.769 0H82.227C59.579 0 40.211 8.042 24.125 24.126 8.044 40.212.002 59.576.002 82.228v237.543c0 22.647 8.042 42.014 24.123 58.101 16.086 16.085 35.454 24.127 58.102 24.127h237.542c22.648 0 42.011-8.042 58.102-24.127 16.085-16.087 24.126-35.453 24.126-58.101V82.228c-.004-22.648-8.046-42.016-24.127-58.102zm-12.422 295.645c0 12.559-4.47 23.314-13.415 32.264-8.945 8.945-19.698 13.411-32.265 13.411H82.227c-12.563 0-23.317-4.466-32.264-13.411-8.945-8.949-13.418-19.705-13.418-32.264V82.228c0-12.562 4.473-23.316 13.418-32.264 8.947-8.946 19.701-13.418 32.264-13.418h237.542c12.566 0 23.319 4.473 32.265 13.418 8.945 8.947 13.415 19.701 13.415 32.264v237.543h-.001z"/>
</symbol><symbol id="icon-down-arrow" viewBox="0 0 129 129">
    <path d="M121.3 34.6c-1.6-1.6-4.2-1.6-5.8 0l-51 51.1-51.1-51.1c-1.6-1.6-4.2-1.6-5.8 0-1.6 1.6-1.6 4.2 0 5.8l53.9 53.9c.8.8 1.8 1.2 2.9 1.2 1 0 2.1-.4 2.9-1.2l53.9-53.9c1.7-1.6 1.7-4.2.1-5.8z"/>
</symbol><symbol id="icon-fb" viewBox="0 0 22 22">
    
    <title>
        social_fb
    </title>
    <path class="cls-1" d="M20.78 0H1.22A1.22 1.22 0 0 0 0 1.22v19.56A1.22 1.22 0 0 0 1.22 22h10.53v-8.52H8.88v-3.32h2.87V7.71A4 4 0 0 1 16 3.33a23.67 23.67 0 0 1 2.56.13v3h-1.74c-1.38 0-1.64.65-1.64 1.61v2.12h3.28L18 13.48h-2.82V22h5.6A1.22 1.22 0 0 0 22 20.78V1.22A1.22 1.22 0 0 0 20.78 0"/>
</symbol><symbol id="icon-instagram" viewBox="0 0 22 22">
    
    <title>
        social_in
    </title>
    <path class="cls-1" d="M11 2c2.94 0 3.28 0 4.44.07a5.9 5.9 0 0 1 2 .38 3.39 3.39 0 0 1 1.26.82 3.44 3.44 0 0 1 .82 1.26 6.13 6.13 0 0 1 .38 2c.1 1.18.1 1.53.1 4.47s0 3.28-.06 4.44a6.07 6.07 0 0 1-.38 2 3.48 3.48 0 0 1-.82 1.27 3.52 3.52 0 0 1-1.26.82 6.15 6.15 0 0 1-2 .38c-1.2.09-1.54.09-4.48.09H6.56a6.15 6.15 0 0 1-2-.38 3.44 3.44 0 0 1-1.26-.82 3.48 3.48 0 0 1-.82-1.27 6.07 6.07 0 0 1-.38-2C2 14.28 2 13.93 2 11s0-3.29.07-4.45a6.13 6.13 0 0 1 .38-2 3.44 3.44 0 0 1 .82-1.26 3.32 3.32 0 0 1 1.26-.82 5.9 5.9 0 0 1 2.05-.38C7.72 2 8.06 2 11 2m0-2C8 0 7.64 0 6.47.07A8 8 0 0 0 3.8.58a5.34 5.34 0 0 0-1.95 1.27A5.39 5.39 0 0 0 .58 3.79a8 8 0 0 0-.51 2.67C0 7.64 0 8 0 11s0 3.36.07 4.53a8 8 0 0 0 .51 2.67 5.42 5.42 0 0 0 1.27 1.95 5.34 5.34 0 0 0 1.95 1.27 8.31 8.31 0 0 0 2.67.51C7.64 22 8 22 11 22s3.36 0 4.53-.06a8.31 8.31 0 0 0 2.67-.51 5.34 5.34 0 0 0 1.95-1.27 5.42 5.42 0 0 0 1.27-1.95 8 8 0 0 0 .51-2.67C22 14.36 22 14 22 11s0-3.36-.07-4.54a8 8 0 0 0-.51-2.67 5.39 5.39 0 0 0-1.27-1.94A5.34 5.34 0 0 0 18.2.58a8 8 0 0 0-2.67-.51C14.36 0 14 0 11 0"/>
    <path class="cls-1" d="M11 5.35A5.65 5.65 0 1 0 16.65 11 5.65 5.65 0 0 0 11 5.35m0 9.31A3.67 3.67 0 1 1 14.67 11 3.67 3.67 0 0 1 11 14.66"/>
    <path class="cls-1" d="M18.19 5.13a1.32 1.32 0 1 1-1.32-1.32 1.32 1.32 0 0 1 1.32 1.32"/>
</symbol><symbol id="icon-left-arrow" viewBox="0 0 477.175 477.175">
    <path d="M145.188 238.575l215.5-215.5c5.3-5.3 5.3-13.8 0-19.1s-13.8-5.3-19.1 0l-225.1 225.1c-5.3 5.3-5.3 13.8 0 19.1l225.1 225c2.6 2.6 6.1 4 9.5 4s6.9-1.3 9.5-4c5.3-5.3 5.3-13.8 0-19.1l-215.4-215.5z"/>
</symbol><symbol id="icon-logo-author" viewBox="0 0 65 35">
    <path fill-rule="evenodd" d="M61.846 31.93c-1.95 1.949-4.636 3.06-7.57 3.07l-.01-.002H28.295L25.982 35h-8.524c-4.79.003-9.154-1.87-12.317-5.058l-.012.009A17.542 17.542 0 0 1 0 17.559l.006-.005H0A17.566 17.566 0 0 1 5.129 5.165v-.008C8.287 1.975 12.653.003 17.445 0h6.717a4.034 4.034 0 0 1 4.029 4.036c0 2.245-1.803 3.846-4.03 3.846l-6.706.004-.004-.01c-2.578.01-4.93 1.293-6.63 3.001l-.02.005a9.411 9.411 0 0 0-2.745 6.672H8.05a9.475 9.475 0 0 0 2.779 6.668l-.009.012c1.701 1.712 4.051 2.846 6.638 2.846l8.515-.007 2.33.007 25.963-.007h.002c.744 0 1.413-.384 1.904-.874.48-.48.814-1.445.814-2.19h.004c-.004-.757-.343-1.99-.839-2.49a2.62 2.62 0 0 0-1.885-.773H47.35l-10.387-.005c-2.007.012-4.024-2.013-4.03-4.041l-.005-12.65C32.923 2.027 34.936 0 36.95 0h10.895c2.233-.008 4.031 1.609 4.027 3.84.004 2.24-1.805 4.056-4.022 4.06l-7.034-.01v5.668l6.533.005 6.912-.005h.005c2.942 0 5.633 1.22 7.584 3.186 1.942 1.957 3.15 4.588 3.15 7.548.012 2.962-1.208 5.672-3.154 7.637"/>
</symbol><symbol id="icon-ok" viewBox="0 0 22 22">
    
    <title>
        social_ok
    </title>
    <path class="cls-1" d="M13.3 16a11 11 0 0 0 3.3-1.36 1.66 1.66 0 0 0-1.77-2.81 7.25 7.25 0 0 1-7.66 0 1.67 1.67 0 0 0-2.29.52 1.66 1.66 0 0 0 .52 2.29A11 11 0 0 0 8.7 16l-3.18 3.17a1.65 1.65 0 0 0 0 2.34 1.67 1.67 0 0 0 2.36 0l3.12-3.1 3.12 3.1a1.67 1.67 0 0 0 2.35 0 1.65 1.65 0 0 0 0-2.34L13.3 16"/>
    <path class="cls-1" d="M11 0a5.69 5.69 0 1 0 5.69 5.69A5.69 5.69 0 0 0 11 0m0 8.05a2.36 2.36 0 1 1 2.36-2.36A2.36 2.36 0 0 1 11 8.05"/>
</symbol><symbol id="icon-play" viewBox="0 0 420 420">
    <path d="M293.909 187.215l-111.818-73.591C162.792 100.926 147 109.445 147 132.545V287.42c0 23.1 15.813 31.647 35.147 18.998L293.86 233.31c19.327-12.663 19.348-33.397.049-46.095zm-14.903 30.653l-99.295 64.981c-6.44 4.221-11.711 1.372-11.711-6.328V143.437c0-7.7 5.264-10.535 11.697-6.3l99.33 65.366c6.433 4.228 6.426 11.144-.021 15.365z"/>
</symbol><symbol id="icon-right-arrow" viewBox="0 0 129 129">
    <path d="M40.4 121.3c-.8.8-1.8 1.2-2.9 1.2s-2.1-.4-2.9-1.2c-1.6-1.6-1.6-4.2 0-5.8l51-51-51-51c-1.6-1.6-1.6-4.2 0-5.8 1.6-1.6 4.2-1.6 5.8 0l53.9 53.9c1.6 1.6 1.6 4.2 0 5.8l-53.9 53.9z"/>
</symbol><symbol id="icon-vk" viewBox="0 0 22 22">
    
    <title>
        social_vk
    </title>
    <path class="cls-1" d="M18.22 11.3s2.89-4.08 3.17-5.42c.1-.48-.11-.75-.61-.75h-2.51a.91.91 0 0 0-.95.62 22.85 22.85 0 0 1-3 4.7c-.53.59-.8.77-1.09.77s-.34-.2-.34-.73V5.84c0-.65-.08-.84-.61-.84h-4c-.31 0-.5.18-.5.42 0 .61.94.75.94 2.41v3.43c0 .69 0 1-.37 1-.86 0-2.9-3-4.05-6.33C4 5.19 3.79 5 3.14 5H.63a.6.6 0 0 0-.63.61c0 .67.78 3.77 3.87 7.92 2.06 2.8 4.78 4.31 7.23 4.31 1.49 0 1.85-.25 1.85-.88v-2.14c0-.54.22-.77.52-.77s.95.11 2.37 1.51c1.69 1.61 1.8 2.28 2.72 2.28h2.81c.29 0 .56-.13.56-.61s-.82-1.76-2.09-3.1c-.51-.69-1.35-1.44-1.62-1.78s-.27-.63 0-1"/>
</symbol></svg>